<svg width="9" height="12" viewBox="0 0 9 12" fill="none" xmlns="http://www.w3.org/2000/svg">
<path d="M7.5 0H1.5C1.10218 0 0.720644 0.158035 0.43934 0.43934C0.158035 0.720644 0 1.10218 0 1.5V10.5C0 10.8978 0.158035 11.2794 0.43934 11.5607C0.720644 11.842 1.10218 12 1.5 12H7.5C7.89782 12 8.27936 11.842 8.56066 11.5607C8.84196 11.2794 9 10.8978 9 10.5V1.5C9 1.10218 8.84196 0.720644 8.56066 0.43934C8.27936 0.158035 7.89782 0 7.5 0ZM2.25 3H6.75C6.84946 3 6.94484 3.03951 7.01517 3.10984C7.08549 3.18016 7.125 3.27554 7.125 3.375C7.125 3.47446 7.08549 3.56984 7.01517 3.64016C6.94484 3.71049 6.84946 3.75 6.75 3.75H2.25C2.15054 3.75 2.05516 3.71049 1.98484 3.64016C1.91451 3.56984 1.875 3.47446 1.875 3.375C1.875 3.27554 1.91451 3.18016 1.98484 3.10984C2.05516 3.03951 2.15054 3 2.25 3ZM1.875 4.875C1.875 4.77554 1.91451 4.68016 1.98484 4.60984C2.05516 4.53951 2.15054 4.5 2.25 4.5H6.75C6.84946 4.5 6.94484 4.53951 7.01517 4.60984C7.08549 4.68016 7.125 4.77554 7.125 4.875C7.125 4.97446 7.08549 5.06984 7.01517 5.14016C6.94484 5.21049 6.84946 5.25 6.75 5.25H2.25C2.15054 5.25 2.05516 5.21049 1.98484 5.14016C1.91451 5.06984 1.875 4.97446 1.875 4.875ZM2.25 6H6.75C6.84946 6 6.94484 6.03951 7.01517 6.10983C7.08549 6.18016 7.125 6.27554 7.125 6.375C7.125 6.47446 7.08549 6.56984 7.01517 6.64017C6.94484 6.71049 6.84946 6.75 6.75 6.75H2.25C2.15054 6.75 2.05516 6.71049 1.98484 6.64017C1.91451 6.56984 1.875 6.47446 1.875 6.375C1.875 6.27554 1.91451 6.18016 1.98484 6.10983C2.05516 6.03951 2.15054 6 2.25 6ZM2.25 7.5H4.5C4.59946 7.5 4.69484 7.53951 4.76517 7.60983C4.83549 7.68016 4.875 7.77554 4.875 7.875C4.875 7.97446 4.83549 8.06984 4.76517 8.14017C4.69484 8.21049 4.59946 8.25 4.5 8.25H2.25C2.15054 8.25 2.05516 8.21049 1.98484 8.14017C1.91451 8.06984 1.875 7.97446 1.875 7.875C1.875 7.77554 1.91451 7.68016 1.98484 7.60983C2.05516 7.53951 2.15054 7.5 2.25 7.5Z" fill="#ABABAB"/>
</svg>
