<svg width="12" height="12" viewBox="0 0 12 12" fill="none" xmlns="http://www.w3.org/2000/svg">
<path d="M9.375 2.25C9.47446 2.25 9.56984 2.28951 9.64017 2.35984C9.71049 2.43016 9.75 2.52554 9.75 2.625C9.75 2.72446 9.71049 2.81984 9.64017 2.89016C9.56984 2.96049 9.47446 3 9.375 3H5.625C5.52554 3 5.43016 2.96049 5.35984 2.89016C5.28951 2.81984 5.25 2.72446 5.25 2.625C5.25 2.52554 5.28951 2.43016 5.35984 2.35984C5.43016 2.28951 5.52554 2.25 5.625 2.25H9.375ZM9.375 4.5C9.47446 4.5 9.56984 4.53951 9.64017 4.60984C9.71049 4.68016 9.75 4.77554 9.75 4.875C9.75 4.97446 9.71049 5.06984 9.64017 5.14016C9.56984 5.21049 9.47446 5.25 9.375 5.25H5.625C5.52554 5.25 5.43016 5.21049 5.35984 5.14016C5.28951 5.06984 5.25 4.97446 5.25 4.875C5.25 4.77554 5.28951 4.68016 5.35984 4.60984C5.43016 4.53951 5.52554 4.5 5.625 4.5H9.375ZM9.75 7.125C9.75 7.02554 9.71049 6.93016 9.64017 6.85983C9.56984 6.78951 9.47446 6.75 9.375 6.75H5.625C5.52554 6.75 5.43016 6.78951 5.35984 6.85983C5.28951 6.93016 5.25 7.02554 5.25 7.125C5.25 7.22446 5.28951 7.31984 5.35984 7.39017C5.43016 7.46049 5.52554 7.5 5.625 7.5H9.375C9.47446 7.5 9.56984 7.46049 9.64017 7.39017C9.71049 7.31984 9.75 7.22446 9.75 7.125ZM9.375 9C9.47446 9 9.56984 9.03951 9.64017 9.10983C9.71049 9.18016 9.75 9.27554 9.75 9.375C9.75 9.47446 9.71049 9.56984 9.64017 9.64017C9.56984 9.71049 9.47446 9.75 9.375 9.75H5.625C5.52554 9.75 5.43016 9.71049 5.35984 9.64017C5.28951 9.56984 5.25 9.47446 5.25 9.375C5.25 9.27554 5.28951 9.18016 5.35984 9.10983C5.43016 9.03951 5.52554 9 5.625 9H9.375Z" fill="#ABABAB"/>
<path d="M12 1.5C12 1.10218 11.842 0.720644 11.5607 0.43934C11.2794 0.158035 10.8978 0 10.5 0L1.5 0C1.10218 0 0.720644 0.158035 0.43934 0.43934C0.158035 0.720644 0 1.10218 0 1.5L0 10.5C0 10.8978 0.158035 11.2794 0.43934 11.5607C0.720644 11.842 1.10218 12 1.5 12H10.5C10.8978 12 11.2794 11.842 11.5607 11.5607C11.842 11.2794 12 10.8978 12 10.5V1.5ZM3 0.75V11.25H1.5C1.30109 11.25 1.11032 11.171 0.96967 11.0303C0.829018 10.8897 0.75 10.6989 0.75 10.5V1.5C0.75 1.30109 0.829018 1.11032 0.96967 0.96967C1.11032 0.829018 1.30109 0.75 1.5 0.75H3ZM3.75 0.75H10.5C10.6989 0.75 10.8897 0.829018 11.0303 0.96967C11.171 1.11032 11.25 1.30109 11.25 1.5V10.5C11.25 10.6989 11.171 10.8897 11.0303 11.0303C10.8897 11.171 10.6989 11.25 10.5 11.25H3.75V0.75Z" fill="#ABABAB"/>
</svg>
