<svg width="13" height="12" viewBox="0 0 13 12" fill="none" xmlns="http://www.w3.org/2000/svg">
<path d="M3.77393 0.75V6.75H0.773926V0.75H3.77393ZM0.773926 0C0.575013 0 0.384248 0.0790176 0.243596 0.21967C0.102943 0.360322 0.0239258 0.551088 0.0239258 0.75L0.0239258 6.75C0.0239258 6.94891 0.102943 7.13968 0.243596 7.28033C0.384248 7.42098 0.575013 7.5 0.773926 7.5H3.77393C3.97284 7.5 4.1636 7.42098 4.30426 7.28033C4.44491 7.13968 4.52393 6.94891 4.52393 6.75V0.75C4.52393 0.551088 4.44491 0.360322 4.30426 0.21967C4.1636 0.0790176 3.97284 0 3.77393 0L0.773926 0ZM10.5239 1.5V5.25H6.77393V1.5H10.5239ZM6.77393 0.75C6.57501 0.75 6.38425 0.829018 6.2436 0.96967C6.10294 1.11032 6.02393 1.30109 6.02393 1.5V5.25C6.02393 5.44891 6.10294 5.63968 6.2436 5.78033C6.38425 5.92098 6.57501 6 6.77393 6H10.5239C10.7228 6 10.9136 5.92098 11.0543 5.78033C11.1949 5.63968 11.2739 5.44891 11.2739 5.25V1.5C11.2739 1.30109 11.1949 1.11032 11.0543 0.96967C10.9136 0.829018 10.7228 0.75 10.5239 0.75H6.77393ZM3.77393 9.75V11.25H2.27393V9.75H3.77393ZM2.27393 9C2.07501 9 1.88425 9.07902 1.7436 9.21967C1.60294 9.36032 1.52393 9.55109 1.52393 9.75V11.25C1.52393 11.4489 1.60294 11.6397 1.7436 11.7803C1.88425 11.921 2.07501 12 2.27393 12H3.77393C3.97284 12 4.1636 11.921 4.30426 11.7803C4.44491 11.6397 4.52393 11.4489 4.52393 11.25V9.75C4.52393 9.55109 4.44491 9.36032 4.30426 9.21967C4.1636 9.07902 3.97284 9 3.77393 9H2.27393ZM11.2739 8.25V9.75H6.77393V8.25H11.2739ZM6.77393 7.5C6.57501 7.5 6.38425 7.57902 6.2436 7.71967C6.10294 7.86032 6.02393 8.05109 6.02393 8.25V9.75C6.02393 9.94891 6.10294 10.1397 6.2436 10.2803C6.38425 10.421 6.57501 10.5 6.77393 10.5H11.2739C11.4728 10.5 11.6636 10.421 11.8043 10.2803C11.9449 10.1397 12.0239 9.94891 12.0239 9.75V8.25C12.0239 8.05109 11.9449 7.86032 11.8043 7.71967C11.6636 7.57902 11.4728 7.5 11.2739 7.5H6.77393Z" fill="#ABABAB"/>
</svg>
